# xmcd
#
# Track frame offsets:
# 150
# 10630
# 21785
# 35592
# 46862
# 60073
# 69610
# 80087
# 93103
# 104291
# 117162
# 127715
# 147453
# 157831
# 171385
# 183980
# 202255
# 213230
# 226223
# 238072
# 247440
# 260485
# 275174
#
# Disc length: 3826 seconds
#
# Revision: 0
# Processed by: cddbd v1.5.1PL2 Copyright (c) Steve Scherf et al.
# Submitted via: Audion 2.5.0 (http://www.panic.com/audion/)
#
DISCID=410ef017
DTITLE=002 - Bubble Gum - 002 - Bubble Gum
DYEAR=1900
DGENRE=
TTITLE0=01 - Beach Boys - Barbara Ann
TTITLE1=02 - The Searchers - Sweets for My Sweet - 1963
TTITLE2=03 - The McCoys - Hang on Sloopy - 1965
TTITLE3=04 - Brian Poole and The Tremeloes - Gimme Gimme Good Lovin' - 1965
TTITLE4=05 - Los Bravos - Black is Black - 1966
TTITLE5=06 - The Troggs - With A Girl Like You - 1966
TTITLE6=07 - Moby Grape - Omaha - 1967
TTITLE7=08 - John Fred and His Playboy Band - Judy in Disguide - 1967
TTITLE8=09 - The Equals - Baby, Come back - 1967
TTITLE9=10 - Tommy James and The Shondelles - Mony Mony - 1968
TTITLE10=11 - Ohio Express - Yummy Yummy Yummy - 1968
TTITLE11=12 - Moody Blues - Ride My See-Saw - 1968
TTITLE12=13 - Los Bravos - Bring A Little Lovin' - 1968
TTITLE13=14 - Shocking Blue - Venus - 1969
TTITLE14=15 - The Archies - Sugar Sugar - 1969
TTITLE15=16 - The Steam - Na Na Hey Hey Kiss Him Goodbye - 1969
TTITLE16=17 - The Hollies - The Mighty Quinn - 1969
TTITLE17=18 - Simon and Garfunkle - Cecilia
TTITLE18=19 - Ohio Express - Chewy Chewy
TTITLE19=20 - Rubettes - Juke Box Jive
TTITLE20=21 - Lally Stott - Chirpy Chirpy Cheep Cheep
TTITLE21=22 - George Baker - Little Green Bag
TTITLE22=23 - Token - The lions sleep tonight
EXTD=
EXTT0=
EXTT1=
EXTT2=
EXTT3=
EXTT4=
EXTT5=
EXTT6=
EXTT7=
EXTT8=
EXTT9=
EXTT10=
EXTT11=
EXTT12=
EXTT13=
EXTT14=
EXTT15=
EXTT16=
EXTT17=
EXTT18=
EXTT19=
EXTT20=
EXTT21=
EXTT22=
PLAYORDER=
